<svg width="30" height="30" viewBox="0 0 30 30" fill="none" xmlns="http://www.w3.org/2000/svg">
<path d="M18.2588 2.53737C18.536 2.54115 18.8052 2.63099 19.0291 2.79447C19.2531 2.95794 19.4207 3.18697 19.5088 3.44987L20.2838 5.79987C20.5377 6.54085 20.9665 7.20973 21.5338 7.74987C22.0823 8.3129 22.7541 8.74081 23.4963 8.99987L25.8338 9.81237C26.0916 9.90494 26.3172 10.0699 26.4838 10.2874C26.6458 10.518 26.7331 10.7929 26.7338 11.0749C26.7393 11.3539 26.6513 11.6267 26.4838 11.8499C26.3196 12.0779 26.0878 12.2485 25.8213 12.3374L23.4713 13.1249C22.7325 13.3687 22.0608 13.7815 21.5096 14.3305C20.9584 14.8795 20.543 15.5496 20.2963 16.2874L19.5213 18.6374C19.4281 18.9017 19.2584 19.1323 19.0338 19.2999C18.8636 19.4249 18.666 19.5075 18.4574 19.5407C18.2489 19.5738 18.0354 19.5567 17.8348 19.4906C17.6342 19.4246 17.4523 19.3116 17.3043 19.161C17.1562 19.0104 17.0463 18.8266 16.9838 18.6249L16.2088 16.2874C15.9658 15.5413 15.5507 14.8629 14.9969 14.3069C14.4432 13.751 13.7664 13.3332 13.0213 13.0874L10.6963 12.3124C10.4366 12.2366 10.2085 12.0787 10.0463 11.8624C9.86793 11.6475 9.76672 11.379 9.75875 11.0999C9.74032 10.8153 9.81971 10.5331 9.98375 10.2999C10.1359 10.0602 10.3652 9.87943 10.6338 9.78737L13.0088 8.99987C13.7548 8.75692 14.4333 8.34178 14.9892 7.78804C15.5451 7.2343 15.9629 6.5575 16.2088 5.81237L17.0213 3.47487C17.1036 3.21175 17.2706 2.98323 17.4963 2.82487C17.7155 2.65419 17.9814 2.55396 18.2588 2.53737ZM9.57 14.8749C9.82626 14.8785 10.0752 14.9607 10.2832 15.1105C10.4911 15.2603 10.648 15.4704 10.7325 15.7124L11.2825 17.3874C11.4492 17.8602 11.723 18.288 12.0825 18.6374C12.4347 18.9935 12.8616 19.2668 13.3325 19.4374L15.0075 20.0249C15.241 20.1054 15.4455 20.2533 15.595 20.4499C15.7442 20.6627 15.8269 20.915 15.8325 21.1749C15.828 21.4326 15.7439 21.6827 15.5917 21.8908C15.4396 22.0989 15.2268 22.2549 14.9825 22.3374L13.3075 22.8874C12.8347 23.0541 12.4069 23.3279 12.0575 23.6874C11.7014 24.0395 11.4281 24.4665 11.2575 24.9374L10.695 26.6249C10.6163 26.8695 10.4578 27.0808 10.245 27.2249C10.0403 27.3807 9.78974 27.4642 9.5325 27.4624C9.27199 27.4607 9.01851 27.3777 8.8075 27.2249C8.60683 27.0687 8.45857 26.855 8.3825 26.6124L7.82 24.9374C7.64938 24.4665 7.37611 24.0395 7.02 23.6874C6.67375 23.3249 6.245 23.0511 5.77 22.8874L4.12 22.3249C3.8835 22.25 3.67464 22.1064 3.52 21.9124C3.36231 21.7127 3.27448 21.4668 3.27 21.2124C3.24832 20.9546 3.31923 20.6976 3.47 20.4874C3.61215 20.2722 3.81736 20.1063 4.0575 20.0124L5.77 19.4499C6.2425 19.2811 6.67 19.0074 7.02 18.6499C7.37611 18.2977 7.64938 17.8707 7.82 17.3999L8.4075 15.7124C8.49537 15.4771 8.65209 15.2737 8.85722 15.1288C9.06234 14.9839 9.30638 14.9041 9.5575 14.8999L9.57 14.8749Z" fill="#FCFF6A"/>
</svg>
