<svg width="1004" height="915" viewBox="0 0 1004 915" fill="none" xmlns="http://www.w3.org/2000/svg">
<rect width="1004" height="915" fill="#1C1C1C"/>
<path d="M225 136.608L299.469 385.364H302.309L373.203 145.484L488.389 156.608L368.361 492.608L235 478.972L110 124L225 136.608Z" fill="white"/>
<path d="M877.736 310.79C877.736 351.273 869.864 385.423 854.121 413.24C838.377 440.939 823.252 469.785 796.5 484.108C769.748 498.313 733.796 510.608 700.889 510.608C667.745 510.608 637.797 504.316 611.045 489.993C584.412 475.551 563.223 440.584 547.48 412.885C531.855 385.068 524.042 351.036 524.042 310.79C524.042 270.307 531.855 236.216 547.48 208.517C563.223 180.7 584.412 159.689 611.045 145.484C637.797 131.161 667.745 124 700.889 124C733.796 124 763.626 131.161 790.378 145.484C817.13 159.689 838.377 180.7 854.121 208.517C869.864 236.216 877.736 270.307 877.736 310.79ZM776.173 310.79C776.173 289.009 773.273 270.662 767.473 255.747C761.791 240.714 753.327 229.35 742.082 221.656C730.955 213.844 717.224 209.938 700.889 209.938C684.554 209.938 670.764 213.844 659.518 221.656C648.391 229.35 639.928 240.714 634.128 255.747C628.446 270.662 625.605 289.009 625.605 310.79C625.605 332.57 628.446 350.977 634.128 366.01C639.928 380.925 648.391 392.288 659.518 400.101C670.764 407.795 684.554 411.642 700.889 411.642C717.224 411.642 730.955 407.795 742.082 400.101C753.327 392.288 761.791 380.925 767.473 366.01C773.273 350.977 776.173 332.57 776.173 310.79Z" fill="white"/>
<path d="M49 546.608V471.608L202.5 489.993L368.361 504.108V569.108L259.647 558.517V842.608H162.346V558.517L49 546.608Z" fill="white"/>
<path d="M479.738 842.608H373.203L488.389 466.608L634.128 504.108L748.203 842.608H641.669L562.124 579.114H559.283L479.738 842.608ZM459.851 699.142H660.135V773.006H459.851V699.142Z" fill="white"/>
<path d="M923.283 466.608L914.05 728.972L831.5 739.108L823.852 478.972L923.283 466.608ZM873.568 848.29C859.836 848.29 848.059 843.496 838.234 833.908C828.527 824.201 823.733 812.423 823.852 798.574C823.733 785.08 828.527 773.538 838.234 763.95C848.059 754.362 859.836 749.568 873.568 749.568C886.588 749.568 898.07 754.362 908.013 763.95C918.075 773.538 923.165 785.08 923.283 798.574C923.165 807.807 920.738 816.211 916.004 823.787C911.387 831.244 905.35 837.222 897.893 841.72C890.435 846.1 882.327 848.29 873.568 848.29Z" fill="white"/>
<path d="M219 133L293.469 381.755H296.309L367.203 141.876L482.389 153L362.361 489L229 475.363L104 120.392L219 133Z" fill="#B62F0D"/>
<path d="M871.736 307.181C871.736 347.664 863.864 381.814 848.121 409.632C825.5 449.6 817.252 466.177 790.5 480.5C763.748 494.705 727.796 507 694.889 507C661.745 507 631.797 500.707 605.045 486.384C578.412 471.943 557.223 436.975 541.48 409.277C525.855 381.459 518.042 347.428 518.042 307.181C518.042 266.698 525.855 232.608 541.48 204.909C557.223 177.091 578.412 156.081 605.045 141.876C631.797 127.553 661.745 120.392 694.889 120.392C727.796 120.392 757.626 127.553 784.378 141.876C811.13 156.081 832.377 177.091 848.121 204.909C863.864 232.608 871.736 266.698 871.736 307.181ZM770.173 307.181C770.173 285.401 767.273 267.054 761.473 252.139C755.791 237.106 747.327 225.742 736.082 218.048C724.955 210.235 711.224 206.329 694.889 206.329C678.554 206.329 664.764 210.235 653.518 218.048C642.391 225.742 633.928 237.106 628.128 252.139C622.446 267.054 619.605 285.401 619.605 307.181C619.605 328.962 622.446 347.368 628.128 362.402C633.928 377.316 642.391 388.68 653.518 396.492C664.764 404.187 678.554 408.034 694.889 408.034C711.224 408.034 724.955 404.187 736.082 396.492C747.327 388.68 755.791 377.316 761.473 362.402C767.273 347.368 770.173 328.962 770.173 307.181Z" fill="#B62F0D"/>
<path d="M43 543V468L196.5 486.384L362.361 500.5V565.5L253.647 554.909V839H156.346V554.909L43 543Z" fill="#B62F0D"/>
<path d="M473.738 839H367.203L482.389 463L628.128 500.5L742.203 839H635.669L556.124 575.505H553.283L473.738 839ZM453.851 695.534H654.135V769.397H453.851V695.534Z" fill="#B62F0D"/>
<path d="M917.283 463L908.05 725.363L825.5 735.5L817.852 475.363L917.283 463ZM867.568 844.681C853.836 844.681 842.059 839.887 832.234 830.299C822.527 820.593 817.733 808.815 817.852 794.965C817.733 781.471 822.527 769.93 832.234 760.342C842.059 750.754 853.836 745.96 867.568 745.96C880.588 745.96 892.07 750.754 902.013 760.342C912.075 769.93 917.165 781.471 917.283 794.965C917.165 804.198 914.738 812.603 910.004 820.179C905.387 827.636 899.35 833.614 891.893 838.112C884.435 842.492 876.327 844.681 867.568 844.681Z" fill="#B62F0D"/>
<path d="M880.683 35C874.532 35 868.538 37.3684 863.806 41.9474L830.367 75.4211L913.964 159.263L947.402 126.105C956.866 116.474 956.866 101.474 947.402 92.3158L897.402 41.9474C892.67 37.3684 886.677 35 880.683 35ZM819.169 86.6316L691.409 214.684L731.787 219.105L734.626 255.263L770.588 257.947L775.162 298.368L902.923 170.316M682.103 229.368C654.619 281.751 643.216 308.294 633 348.5L706.5 330.5L760.178 306.737L756.393 272.632L719.957 269.947L717.118 233.316" fill="white"/>
<path d="M880.683 30C874.532 30 868.538 32.3684 863.806 36.9474L830.367 70.4211L913.964 154.263L947.402 121.105C956.866 111.474 956.866 96.4737 947.402 87.3158L897.402 36.9474C892.67 32.3684 886.677 30 880.683 30ZM819.169 81.6316L691.409 209.684L731.787 214.105L734.626 250.263L770.588 252.947L775.162 293.368L902.923 165.316M682.103 224.368C654.619 276.751 643.216 303.294 633 343.5L706.5 325.5L760.178 301.737L756.393 267.632L719.957 264.947L717.118 228.316" fill="#B6830D"/>
</svg>
