<svg width="129" height="128" viewBox="0 0 129 128" fill="none" xmlns="http://www.w3.org/2000/svg">
<rect x="0.0666504" y="128" width="128" height="128" rx="64" transform="rotate(-90 0.0666504 128)" fill="#FFBEAE"/>
<ellipse cx="64.0667" cy="64.0002" rx="54.0369" ry="54.4875" fill="#FD9584"/>
<path d="M68.8065 39.2C66.9398 39.2 65.3732 39.9333 64.1065 41.4C62.8398 42.8667 61.8398 44.6667 61.1065 46.8C60.4398 48.9333 59.9398 51.2667 59.6065 53.8C59.3398 56.2667 59.2065 58.6667 59.2065 61C59.2065 67.0667 60.2065 72.3667 62.2065 76.9C64.2732 81.3667 67.8732 83.6 73.0065 83.6C76.6732 83.6 79.8732 82.4667 82.6065 80.2C85.3398 77.8667 87.4065 74.9333 88.8065 71.4L90.3065 72.2C85.8398 82.0667 77.8398 87 66.3065 87C58.7065 87 52.2398 84.7667 46.9065 80.3C41.5732 75.7667 38.9065 69.8 38.9065 62.4C38.9065 54.9333 41.5065 48.9333 46.7065 44.4C51.9732 39.8667 58.5065 37.6 66.3065 37.6C69.2398 37.6 71.9398 37.9333 74.4065 38.6C76.8732 39.2 79.1732 40.0667 81.3065 41.2C83.5065 42.2667 85.5732 43.8333 87.5065 45.9C89.5065 47.9 90.5065 50.2667 90.5065 53C90.5065 55.4667 89.7398 57.4667 88.2065 59C86.6732 60.4667 84.4065 61.2 81.4065 61.2C78.8065 61.2 76.4398 60.3 74.3065 58.5C72.2398 56.6333 71.2065 54.5333 71.2065 52.2C71.2065 50.4 71.5732 48.6667 72.3065 47C73.0398 45.3333 73.4065 43.9333 73.4065 42.8C73.4065 41.7333 73.0065 40.8667 72.2065 40.2C71.4065 39.5333 70.2732 39.2 68.8065 39.2Z" fill="#FFFFF7"/>
<path d="M30.0335 19.1221C28.2635 20.6026 27.3785 21.3421 27.5135 22.1941C27.65 23.0446 28.718 23.4421 30.854 24.2371L31.406 24.4441C32.0135 24.6691 32.3165 24.7831 32.54 25.0036C32.7635 25.2226 32.882 25.5256 33.119 26.1286L33.3335 26.6791C34.166 28.8046 34.583 29.8681 35.4335 29.9896C36.284 30.1111 37.007 29.2096 38.45 27.4081L38.825 26.9431C39.2345 26.4301 39.44 26.1736 39.7205 26.0266C40.001 25.8766 40.3265 25.8541 40.976 25.8076L41.567 25.7641C43.8515 25.5991 44.9945 25.5151 45.3845 24.7396C45.7745 23.9641 45.152 23.0086 43.91 21.0991L43.5875 20.6056C43.235 20.0626 43.058 19.7911 43.007 19.4806C42.9575 19.1686 43.04 18.8506 43.205 18.2191L43.355 17.6416C43.934 15.4141 44.225 14.2996 43.6145 13.6981C43.004 13.0966 41.8985 13.4086 39.6845 14.0296L39.1145 14.1916C38.4845 14.3671 38.1695 14.4556 37.859 14.4121C37.547 14.3671 37.274 14.1946 36.725 13.8511L36.227 13.5361C34.2995 12.3256 33.3365 11.7211 32.57 12.1261C31.8035 12.5296 31.7405 13.6756 31.6175 15.9691L31.5845 16.5631C31.55 17.2141 31.532 17.5411 31.3895 17.8246C31.247 18.1096 30.995 18.3196 30.491 18.7396L30.0335 19.1221Z" fill="#FDFF91"/>
<path d="M21.7505 19.683L22.5335 19.4085C23.393 19.107 23.8235 18.9555 24.1385 18.663C24.4565 18.369 24.6245 17.967 24.959 17.1615L25.265 16.428C26.444 13.593 27.035 12.1755 28.2395 12.015C28.7405 11.9475 29.2115 12.1155 29.7365 12.51C29.7024 12.636 29.6723 12.7631 29.6465 12.891C29.486 13.68 29.432 14.6835 29.3765 15.7065L29.3375 16.4415L29.318 16.7865L29.048 17.013L28.4825 17.487C27.6905 18.147 26.918 18.792 26.381 19.395C25.808 20.0355 25.061 21.1065 25.292 22.5495C25.526 24.0075 26.5865 24.7845 27.3425 25.2045C28.0445 25.593 28.9835 25.9425 29.933 26.2965L30.62 26.5515L30.9095 26.6595C30.9395 26.7395 30.9775 26.836 31.0235 26.949L31.2905 27.633C31.661 28.578 32.0255 29.5125 32.426 30.2085C32.8565 30.9555 33.6515 32.0085 35.1155 32.217C36.566 32.4225 37.625 31.65 38.2535 31.0665C38.72 30.6315 39.2135 30.045 39.7205 29.4195C40.358 31.773 40.5965 33.024 39.8285 33.735C38.9645 34.536 37.3985 34.122 34.2635 33.2925L33.4535 33.0795C32.561 32.844 32.117 32.7255 31.6745 32.784C31.2335 32.844 30.845 33.0735 30.0695 33.5325L29.3645 33.9495C26.633 35.565 25.268 36.372 24.1805 35.835C23.0945 35.295 23.006 33.7665 22.8305 30.708L22.7855 29.9175C22.7345 29.0475 22.7105 28.614 22.508 28.2345C22.3055 27.8565 21.95 27.576 21.236 27.015L20.588 26.505C18.0785 24.531 16.8245 23.544 17.018 22.41C17.2115 21.276 18.7235 20.745 21.749 19.6845" fill="#FDFF91"/>
</svg>
