<svg width="30" height="30" viewBox="0 0 30 30" fill="none" xmlns="http://www.w3.org/2000/svg">
<path d="M11.8375 2.53762C12.1169 2.5388 12.3889 2.62745 12.6153 2.7911C12.8417 2.95476 13.0112 3.18521 13.1 3.45012L13.875 5.80012C14.1217 6.53792 14.5372 7.20797 15.0884 7.75698C15.6395 8.306 16.3112 8.71882 17.05 8.96262L19.3875 9.77512C19.6483 9.86843 19.8749 10.0384 20.0375 10.2626C20.1599 10.4326 20.2403 10.6291 20.272 10.8362C20.3038 11.0432 20.286 11.2548 20.2201 11.4537C20.1542 11.6525 20.0422 11.8329 19.8931 11.98C19.744 12.1272 19.5622 12.2369 19.3625 12.3001L17.0125 13.0876C16.2715 13.3416 15.6026 13.7703 15.0625 14.3376C14.4995 14.8862 14.0716 15.558 13.8125 16.3001L13.025 18.6501C12.9412 18.9162 12.7748 19.1487 12.55 19.3139C12.3217 19.4759 12.0487 19.5629 11.7687 19.5629C11.4888 19.5629 11.2158 19.4759 10.9875 19.3139C10.756 19.1477 10.5849 18.9108 10.5 18.6389L9.71249 16.3014C9.45948 15.549 9.031 14.8678 8.46249 14.3139C7.90874 13.7514 7.23249 13.3226 6.48749 13.0639L4.17499 12.2889C3.91078 12.2156 3.67799 12.0575 3.51249 11.8389C3.33604 11.6189 3.23913 11.3458 3.23749 11.0639C3.23076 10.7846 3.30924 10.5099 3.46249 10.2764C3.6115 10.0389 3.83603 9.85837 4.09999 9.76387L6.48749 8.97637C7.23249 8.71762 7.90874 8.28887 8.46249 7.72637C9.02934 7.17604 9.45771 6.49921 9.71249 5.75137L10.5375 3.41387C10.6198 3.15075 10.7868 2.92222 11.0125 2.76387C11.255 2.60137 11.5437 2.52012 11.8375 2.53762ZM20.5 14.8751C20.7549 14.8757 21.0035 14.9542 21.2125 15.1001C21.4157 15.2512 21.5683 15.4604 21.65 15.7001L22.2125 17.3876C22.3792 17.8604 22.653 18.2882 23.0125 18.6376C23.3646 18.9937 23.7916 19.267 24.2625 19.4376L25.9375 20.0251C26.1772 20.1068 26.3864 20.2594 26.5375 20.4626C26.6854 20.6731 26.7648 20.9241 26.7648 21.1814C26.7648 21.4386 26.6854 21.6896 26.5375 21.9001C26.3864 22.1034 26.1772 22.2559 25.9375 22.3376L24.2625 22.8876C23.7915 23.0586 23.3645 23.3323 23.0125 23.6889C22.6564 24.041 22.3831 24.468 22.2125 24.9389L21.6625 26.6264C21.5774 26.8677 21.4204 27.0771 21.2125 27.2264C21.005 27.3767 20.7562 27.4596 20.5 27.4639C20.2422 27.4594 19.9921 27.3753 19.784 27.2231C19.5759 27.0709 19.42 26.8581 19.3375 26.6139L18.7875 24.9389C18.6135 24.4697 18.3403 24.0437 17.9865 23.6899C17.6327 23.3361 17.2066 23.0628 16.7375 22.8889L15.0875 22.3264C14.851 22.2515 14.6421 22.1079 14.4875 21.9139C14.333 21.7111 14.2442 21.4659 14.233 21.2112C14.2219 20.9565 14.2888 20.7044 14.425 20.4889C14.5725 20.2751 14.7812 20.1101 15.025 20.0139L16.7375 19.4514C17.2066 19.2774 17.6327 19.0042 17.9865 18.6504C18.3403 18.2966 18.6135 17.8705 18.7875 17.4014L19.375 15.7264C19.4512 15.4872 19.6052 15.2804 19.8125 15.1389C20.0076 14.98 20.2486 14.888 20.5 14.8764" fill="#FCFF6A"/>
</svg>
