<svg width="30" height="30" viewBox="0 0 30 30" fill="none" xmlns="http://www.w3.org/2000/svg">
<path d="M20.1625 2.82766C20.4358 2.82132 20.7036 2.90475 20.925 3.06516C21.1507 3.22352 21.3177 3.45204 21.4 3.71516L22.1125 5.85266C22.3311 6.51106 22.699 7.10999 23.1875 7.60266C23.6773 8.09478 24.2771 8.46326 24.9375 8.67766L27.0625 9.42766C27.3176 9.50579 27.541 9.66348 27.7 9.87766C27.8552 10.1063 27.938 10.3763 27.9375 10.6527C27.9493 10.93 27.8685 11.2034 27.7079 11.4297C27.5472 11.656 27.3157 11.8224 27.05 11.9027L24.9125 12.6152C24.2521 12.8296 23.6523 13.198 23.1625 13.6902C22.6763 14.1869 22.3051 14.7843 22.075 15.4402L21.375 17.5777C21.2863 17.8307 21.1255 18.0523 20.9125 18.2152C20.6868 18.3793 20.4165 18.4708 20.1375 18.4777C19.8602 18.4895 19.5868 18.4087 19.3605 18.248C19.1341 18.0873 18.9677 17.8559 18.8875 17.5902L18.175 15.4402C17.9595 14.7734 17.5888 14.1673 17.0933 13.6718C16.5978 13.1764 15.9918 12.8056 15.325 12.5902L13.2125 11.8777C12.9526 11.8048 12.7232 11.6497 12.5587 11.4357C12.3942 11.2216 12.3035 10.9601 12.3 10.6902C12.3 10.4214 12.3737 10.1577 12.5125 9.92766C12.6687 9.70016 12.8912 9.52516 13.15 9.42766L15.325 8.70266C15.9918 8.4872 16.5978 8.11647 17.0933 7.62099C17.5888 7.1255 17.9595 6.51943 18.175 5.85266L18.925 3.72766C19.0097 3.46913 19.1765 3.24531 19.4 3.09016C19.6182 2.92083 19.8863 2.82852 20.1625 2.82766ZM12.2125 15.3264C12.4575 15.3283 12.6966 15.4022 12.9 15.5389C13.1012 15.6867 13.2536 15.8913 13.3375 16.1264L13.8625 17.7014C14.015 18.1427 14.2625 18.5427 14.5875 18.8764C14.9202 19.2027 15.3217 19.4504 15.7625 19.6014L17.3125 20.1389C17.5516 20.2151 17.7584 20.3691 17.9 20.5764C18.0435 20.7819 18.1219 21.0258 18.125 21.2764C18.1207 21.5326 18.0378 21.7814 17.8875 21.9889C17.7379 22.1855 17.5335 22.3334 17.3 22.4139L15.7375 22.9264C15.3 23.0768 14.9025 23.3247 14.575 23.6514C14.2391 23.9715 13.9897 24.3715 13.85 24.8139L13.325 26.3764C13.2487 26.6189 13.095 26.8296 12.8875 26.9764C12.7317 27.0759 12.5557 27.1396 12.3723 27.1629C12.1889 27.1862 12.0026 27.1685 11.8268 27.1111C11.651 27.0537 11.4902 26.9581 11.3559 26.831C11.2215 26.704 11.1171 26.5487 11.05 26.3764L10.5375 24.8139C10.3831 24.3718 10.131 23.9702 9.79983 23.6391C9.4687 23.3079 9.06711 23.0558 8.62499 22.9014L7.08749 22.3889C6.85708 22.3152 6.65299 22.1763 6.49999 21.9889C6.34996 21.7898 6.2629 21.5504 6.24999 21.3014C6.24321 21.0492 6.31293 20.8008 6.44999 20.5889C6.59075 20.3804 6.79115 20.2192 7.02499 20.1264L8.62499 19.6014C9.06711 19.447 9.4687 19.1949 9.79983 18.8638C10.131 18.5326 10.3831 18.131 10.5375 17.6889L11.075 16.1264C11.1553 15.8927 11.3087 15.6911 11.5125 15.5514C11.7157 15.4035 11.9611 15.3246 12.2125 15.3264ZM5.51249 8.09016C5.7404 8.10148 5.96087 8.17497 6.14999 8.30266C6.32824 8.43273 6.45976 8.61686 6.52499 8.82766L6.78749 9.60266C6.83944 9.7532 6.92497 9.88996 7.03758 10.0026C7.15019 10.1152 7.28694 10.2007 7.43749 10.2527L8.22499 10.5277C8.41675 10.6031 8.58499 10.7283 8.71249 10.8902C8.86012 11.0744 8.9396 11.304 8.93749 11.5402C8.92408 11.7562 8.85984 11.9661 8.74999 12.1527C8.61231 12.3395 8.4202 12.4793 8.19999 12.5527L7.42499 12.8152C7.27128 12.8603 7.13292 12.9468 7.02499 13.0652C6.90935 13.1754 6.82337 13.3129 6.77499 13.4652L6.52499 14.2402C6.44458 14.4464 6.31086 14.6276 6.13749 14.7652C5.95015 14.8948 5.72784 14.9646 5.49999 14.9652C5.27133 14.9579 5.04977 14.884 4.86249 14.7527C4.68891 14.618 4.55855 14.4355 4.48749 14.2277L4.23749 13.4652C4.18496 13.3112 4.09967 13.1705 3.98749 13.0527C3.86968 12.9405 3.72895 12.8552 3.57499 12.8027L2.79999 12.5402C2.60624 12.4652 2.43499 12.3464 2.29999 12.1902C2.16763 12.0108 2.08563 11.7994 2.06249 11.5777C2.06114 11.3418 2.13083 11.1109 2.26249 10.9152C2.39505 10.739 2.57187 10.601 2.77499 10.5152L3.57499 10.2527C3.72895 10.2001 3.86968 10.1148 3.98749 10.0027C4.09545 9.8864 4.1803 9.75065 4.23749 9.60266L4.49999 8.81516C4.57879 8.61489 4.70795 8.43836 4.87499 8.30266C5.05973 8.1663 5.28288 8.09192 5.51249 8.09016Z" fill="#FCFF6A"/>
</svg>
